# Blender v2.80 (sub 75) OBJ File: ''
# www.blender.org
mtllib texturedpipe.mtl
o Cylinder
v 0.000000 2.277794 -0.803972
v 0.000000 2.859476 -0.940318
v 0.183447 2.859476 -0.922249
v 0.156847 2.277794 -0.788524
v 0.359844 2.859476 -0.868740
v 0.307667 2.277794 -0.742773
v 0.522412 2.859476 -0.781846
v 0.446663 2.277794 -0.668478
v 0.664905 2.859476 -0.664905
v 0.568494 2.277794 -0.568494
v 0.781846 2.859476 -0.522412
v 0.668478 2.277794 -0.446663
v 0.868740 2.859476 -0.359844
v 0.742773 2.277794 -0.307667
v 0.922250 2.859476 -0.183447
v 0.788524 2.277794 -0.156847
v 0.940318 2.859476 0.000000
v 0.803972 2.277794 0.000000
v 0.922250 2.859476 0.183447
v 0.788524 2.277794 0.156847
v 0.868740 2.859476 0.359844
v 0.742773 2.277794 0.307667
v 0.781846 2.859476 0.522412
v 0.668478 2.277794 0.446663
v 0.664905 2.859476 0.664905
v 0.568494 2.277794 0.568494
v 0.522412 2.859476 0.781846
v 0.446663 2.277794 0.668478
v 0.359844 2.859476 0.868740
v 0.307667 2.277794 0.742773
v 0.183447 2.859476 0.922250
v 0.156847 2.277794 0.788524
v 0.000000 2.859476 0.940318
v 0.000000 2.277794 0.803972
v -0.183447 2.859476 0.922250
v -0.156847 2.277794 0.788524
v -0.359844 2.859476 0.868740
v -0.307667 2.277794 0.742773
v -0.522413 2.859476 0.781845
v -0.446663 2.277794 0.668478
v -0.664905 2.859476 0.664905
v -0.568494 2.277794 0.568494
v -0.781846 2.859476 0.522412
v -0.668479 2.277794 0.446662
v -0.868740 2.859476 0.359843
v -0.742773 2.277794 0.307666
v -0.922250 2.859476 0.183446
v -0.788524 2.277794 0.156846
v -0.940318 2.859476 -0.000001
v -0.803972 2.277794 -0.000001
v -0.922249 2.859476 -0.183448
v -0.788524 2.277794 -0.156848
v -0.868740 2.859476 -0.359845
v -0.742773 2.277794 -0.307668
v -0.781845 2.859476 -0.522413
v -0.668478 2.277794 -0.446664
v -0.664904 2.859476 -0.664906
v -0.568493 2.277794 -0.568495
v -0.522411 2.859476 -0.781846
v -0.446662 2.277794 -0.668479
v -0.359843 2.859476 -0.868740
v -0.307666 2.277794 -0.742774
v -0.183445 2.859476 -0.922249
v -0.156846 2.277794 -0.788524
v 0.000000 -2.859476 -1.000000
v 0.195090 -2.859476 -0.980785
v 0.382683 -2.859476 -0.923880
v 0.555570 -2.859476 -0.831470
v 0.707107 -2.859476 -0.707107
v 0.831470 -2.859476 -0.555570
v 0.923880 -2.859476 -0.382683
v 0.980785 -2.859476 -0.195090
v 1.000000 -2.859476 -0.000000
v 0.980785 -2.859476 0.195090
v 0.923880 -2.859476 0.382683
v 0.831470 -2.859476 0.555570
v 0.707107 -2.859476 0.707107
v 0.555570 -2.859476 0.831470
v 0.382683 -2.859476 0.923880
v 0.195090 -2.859476 0.980785
v 0.000000 -2.859476 1.000000
v -0.195091 -2.859476 0.980785
v -0.382684 -2.859476 0.923879
v -0.555571 -2.859476 0.831469
v -0.707107 -2.859476 0.707106
v -0.831470 -2.859476 0.555570
v -0.923880 -2.859476 0.382683
v -0.980785 -2.859476 0.195089
v -1.000000 -2.859476 -0.000001
v -0.980785 -2.859476 -0.195091
v -0.923879 -2.859476 -0.382684
v -0.831469 -2.859476 -0.555571
v -0.707106 -2.859476 -0.707108
v -0.555569 -2.859476 -0.831470
v -0.382682 -2.859476 -0.923880
v -0.195089 -2.859476 -0.980787
v -0.155517 -2.345909 -0.781841
v 0.000000 -2.345909 -0.797158
v -0.305058 -2.345909 -0.736479
v -0.442876 -2.345909 -0.662813
v -0.563675 -2.345909 -0.563677
v -0.662812 -2.345909 -0.442878
v -0.736478 -2.345909 -0.305060
v -0.781841 -2.345909 -0.155519
v -0.797158 -2.345909 -0.000001
v -0.781841 -2.345909 0.155517
v -0.736478 -2.345909 0.305059
v -0.662813 -2.345909 0.442877
v -0.563676 -2.345909 0.563675
v -0.442878 -2.345909 0.662812
v -0.305060 -2.345909 0.736478
v -0.155518 -2.345909 0.781841
v 0.000000 -2.345909 0.797158
v 0.155518 -2.345909 0.781841
v 0.305059 -2.345909 0.736478
v 0.442877 -2.345909 0.662813
v 0.563676 -2.345909 0.563676
v 0.662813 -2.345909 0.442877
v 0.736478 -2.345909 0.305059
v 0.781841 -2.345909 0.155518
v 0.797158 -2.345909 -0.000000
v 0.781841 -2.345909 -0.155518
v 0.736478 -2.345909 -0.305059
v 0.662813 -2.345909 -0.442877
v 0.563676 -2.345909 -0.563676
v 0.442877 -2.345909 -0.662813
v 0.305059 -2.345909 -0.736478
v 0.155518 -2.345909 -0.781841
vt 1.000000 0.949144
vt 1.000000 1.000000
vt 0.968750 1.000000
vt 0.968750 0.949144
vt 0.937500 1.000000
vt 0.937500 0.949144
vt 0.906250 1.000000
vt 0.906250 0.949144
vt 0.875000 1.000000
vt 0.875000 0.949144
vt 0.843750 1.000000
vt 0.843750 0.949144
vt 0.812500 1.000000
vt 0.812500 0.949144
vt 0.781250 1.000000
vt 0.781250 0.949144
vt 0.750000 1.000000
vt 0.750000 0.949144
vt 0.718750 1.000000
vt 0.718750 0.949144
vt 0.687500 1.000000
vt 0.687500 0.949144
vt 0.656250 1.000000
vt 0.656250 0.949144
vt 0.625000 1.000000
vt 0.625000 0.949144
vt 0.593750 1.000000
vt 0.593750 0.949144
vt 0.562500 1.000000
vt 0.562500 0.949144
vt 0.531250 1.000000
vt 0.531250 0.949144
vt 0.500000 1.000000
vt 0.500000 0.949144
vt 0.468750 1.000000
vt 0.468750 0.949144
vt 0.437500 1.000000
vt 0.437500 0.949144
vt 0.406250 1.000000
vt 0.406250 0.949144
vt 0.375000 1.000000
vt 0.375000 0.949144
vt 0.343750 1.000000
vt 0.343750 0.949144
vt 0.312500 1.000000
vt 0.312500 0.949144
vt 0.281250 1.000000
vt 0.281250 0.949144
vt 0.250000 1.000000
vt 0.250000 0.949144
vt 0.218750 1.000000
vt 0.218750 0.949144
vt 0.187500 1.000000
vt 0.187500 0.949144
vt 0.156250 1.000000
vt 0.156250 0.949144
vt 0.125000 1.000000
vt 0.125000 0.949144
vt 0.093750 1.000000
vt 0.093750 0.949144
vt 0.062500 1.000000
vt 0.062500 0.949144
vt 0.296822 0.485388
vt 0.250000 0.490000
vt 0.203179 0.485389
vt 0.158156 0.471731
vt 0.116663 0.449553
vt 0.080295 0.419706
vt 0.050447 0.383337
vt 0.028269 0.341844
vt 0.014612 0.296822
vt 0.010000 0.250000
vt 0.014611 0.203179
vt 0.028269 0.158156
vt 0.050447 0.116663
vt 0.080294 0.080294
vt 0.116663 0.050447
vt 0.158156 0.028269
vt 0.203178 0.014612
vt 0.250000 0.010000
vt 0.296822 0.014612
vt 0.341844 0.028269
vt 0.383337 0.050447
vt 0.419706 0.080294
vt 0.449553 0.116663
vt 0.471731 0.158156
vt 0.485388 0.203178
vt 0.490000 0.250000
vt 0.485388 0.296822
vt 0.471731 0.341844
vt 0.449553 0.383337
vt 0.419706 0.419706
vt 0.383337 0.449553
vt 0.341844 0.471731
vt 0.031250 1.000000
vt 0.031250 0.949144
vt 0.000000 1.000000
vt 0.000000 0.949144
vt 0.750000 0.490000
vt 0.796822 0.485388
vt 0.841844 0.471731
vt 0.883337 0.449553
vt 0.919706 0.419706
vt 0.949553 0.383337
vt 0.971731 0.341844
vt 0.985388 0.296822
vt 0.990000 0.250000
vt 0.985388 0.203178
vt 0.971731 0.158156
vt 0.949553 0.116663
vt 0.919706 0.080294
vt 0.883337 0.050447
vt 0.841844 0.028269
vt 0.796822 0.014612
vt 0.750000 0.010000
vt 0.703178 0.014612
vt 0.658156 0.028269
vt 0.616663 0.050447
vt 0.580294 0.080294
vt 0.550447 0.116663
vt 0.528269 0.158156
vt 0.514611 0.203179
vt 0.510000 0.250000
vt 0.514612 0.296822
vt 0.528269 0.341844
vt 0.550447 0.383337
vt 0.580295 0.419706
vt 0.616663 0.449553
vt 0.658156 0.471731
vt 0.703179 0.485389
vt 0.031250 0.544900
vt 0.000000 0.544900
vt 0.062500 0.544900
vt 0.093750 0.544901
vt 0.125000 0.544900
vt 0.156250 0.544900
vt 0.187500 0.544901
vt 0.218750 0.544900
vt 0.250000 0.544900
vt 0.281250 0.544900
vt 0.312500 0.544901
vt 0.343750 0.544900
vt 0.375000 0.544900
vt 0.406250 0.544900
vt 0.437500 0.544900
vt 0.468750 0.544900
vt 0.500000 0.544901
vt 0.531250 0.544900
vt 0.562500 0.544900
vt 0.593750 0.544900
vt 0.625000 0.544900
vt 0.656250 0.544901
vt 0.687500 0.544900
vt 0.718750 0.544900
vt 0.750000 0.544901
vt 0.781250 0.544900
vt 0.812500 0.544900
vt 0.843750 0.544900
vt 0.875000 0.544900
vt 0.906250 0.544900
vt 0.937500 0.544900
vt 0.968750 0.544900
vt 1.000000 0.544900
vt 1.000000 0.500000
vt 0.968750 0.500000
vt 0.937500 0.500000
vt 0.906250 0.500000
vt 0.875000 0.500000
vt 0.843750 0.500000
vt 0.812500 0.500000
vt 0.781250 0.500000
vt 0.750000 0.500000
vt 0.718750 0.500000
vt 0.687500 0.500000
vt 0.656250 0.500000
vt 0.625000 0.500000
vt 0.593750 0.500000
vt 0.562500 0.500000
vt 0.531250 0.500000
vt 0.500000 0.500000
vt 0.468750 0.500000
vt 0.437500 0.500000
vt 0.406250 0.500000
vt 0.375000 0.500000
vt 0.343750 0.500000
vt 0.312500 0.500000
vt 0.281250 0.500000
vt 0.250000 0.500000
vt 0.218750 0.500000
vt 0.187500 0.500000
vt 0.156250 0.500000
vt 0.125000 0.500000
vt 0.093750 0.500000
vt 0.062500 0.500000
vt 0.031250 0.500000
vt 0.000000 0.500000
vn 0.0955 -0.2272 -0.9692
vn 0.2827 -0.2272 -0.9319
vn 0.4591 -0.2272 -0.8589
vn 0.6178 -0.2272 -0.7528
vn 0.7528 -0.2272 -0.6178
vn 0.8589 -0.2272 -0.4591
vn 0.9319 -0.2272 -0.2827
vn 0.9692 -0.2272 -0.0955
vn 0.9692 -0.2272 0.0955
vn 0.9319 -0.2272 0.2827
vn 0.8589 -0.2272 0.4591
vn 0.7528 -0.2272 0.6178
vn 0.6178 -0.2272 0.7528
vn 0.4591 -0.2272 0.8589
vn 0.2827 -0.2272 0.9319
vn 0.0955 -0.2272 0.9692
vn -0.0955 -0.2272 0.9692
vn -0.2827 -0.2272 0.9319
vn -0.4591 -0.2272 0.8589
vn -0.6178 -0.2272 0.7528
vn -0.7528 -0.2272 0.6178
vn -0.8589 -0.2272 0.4591
vn -0.9319 -0.2272 0.2827
vn -0.9692 -0.2272 0.0955
vn -0.9692 -0.2272 -0.0955
vn -0.9319 -0.2272 -0.2827
vn -0.8589 -0.2272 -0.4591
vn -0.7528 -0.2272 -0.6178
vn -0.6178 -0.2272 -0.7528
vn -0.4591 -0.2272 -0.8589
vn -0.0000 1.0000 0.0000
vn -0.2827 -0.2272 -0.9319
vn -0.0955 -0.2272 -0.9692
vn 0.0000 -1.0000 -0.0000
vn -0.0980 -0.0015 -0.9952
vn -0.2903 -0.0015 -0.9569
vn -0.4714 -0.0015 -0.8819
vn -0.6344 -0.0015 -0.7730
vn -0.7730 -0.0015 -0.6344
vn -0.8819 -0.0015 -0.4714
vn -0.9569 -0.0015 -0.2903
vn -0.9952 -0.0015 -0.0980
vn -0.9952 -0.0015 0.0980
vn -0.9569 -0.0015 0.2903
vn -0.8819 -0.0015 0.4714
vn -0.7730 -0.0015 0.6344
vn -0.6344 -0.0015 0.7730
vn -0.4714 -0.0015 0.8819
vn -0.2903 -0.0015 0.9569
vn -0.0980 -0.0015 0.9952
vn 0.0980 -0.0015 0.9952
vn 0.2903 -0.0015 0.9569
vn 0.4714 -0.0015 0.8819
vn 0.6344 -0.0015 0.7730
vn 0.7730 -0.0015 0.6344
vn 0.8819 -0.0015 0.4714
vn 0.9569 -0.0015 0.2903
vn 0.9952 -0.0015 0.0980
vn 0.9952 -0.0015 -0.0980
vn 0.9569 -0.0015 -0.2903
vn 0.8819 -0.0015 -0.4714
vn 0.7730 -0.0015 -0.6344
vn 0.6344 -0.0015 -0.7730
vn 0.4714 -0.0015 -0.8819
vn 0.2903 -0.0015 -0.9569
vn 0.0980 -0.0015 -0.9952
vn 0.0912 0.3658 -0.9262
vn 0.2702 0.3658 -0.8906
vn 0.4387 0.3658 -0.8208
vn 0.5904 0.3658 -0.7194
vn 0.7194 0.3658 -0.5904
vn 0.8208 0.3658 -0.4387
vn 0.8906 0.3658 -0.2702
vn 0.9262 0.3658 -0.0912
vn 0.9262 0.3658 0.0912
vn 0.8906 0.3658 0.2702
vn 0.8208 0.3658 0.4387
vn 0.7194 0.3658 0.5904
vn 0.5904 0.3658 0.7194
vn 0.4387 0.3658 0.8208
vn 0.2702 0.3658 0.8906
vn 0.0912 0.3658 0.9262
vn -0.0912 0.3658 0.9262
vn -0.2702 0.3658 0.8906
vn -0.4387 0.3658 0.8208
vn -0.5904 0.3658 0.7194
vn -0.7194 0.3658 0.5904
vn -0.8208 0.3658 0.4387
vn -0.8906 0.3658 0.2702
vn -0.9262 0.3658 0.0912
vn -0.9262 0.3658 -0.0912
vn -0.8906 0.3658 -0.2702
vn -0.8208 0.3658 -0.4387
vn -0.7194 0.3658 -0.5904
vn -0.5904 0.3658 -0.7194
vn -0.4387 0.3658 -0.8208
vn -0.2702 0.3658 -0.8906
vn -0.0912 0.3658 -0.9262
usemtl Material.001
s 1
f 1/1/1 2/2/1 3/3/1 4/4/1
f 4/4/2 3/3/2 5/5/2 6/6/2
f 6/6/3 5/5/3 7/7/3 8/8/3
f 8/8/4 7/7/4 9/9/4 10/10/4
f 10/10/5 9/9/5 11/11/5 12/12/5
f 12/12/6 11/11/6 13/13/6 14/14/6
f 14/14/7 13/13/7 15/15/7 16/16/7
f 16/16/8 15/15/8 17/17/8 18/18/8
f 18/18/9 17/17/9 19/19/9 20/20/9
f 20/20/10 19/19/10 21/21/10 22/22/10
f 22/22/11 21/21/11 23/23/11 24/24/11
f 24/24/12 23/23/12 25/25/12 26/26/12
f 26/26/13 25/25/13 27/27/13 28/28/13
f 28/28/14 27/27/14 29/29/14 30/30/14
f 30/30/15 29/29/15 31/31/15 32/32/15
f 32/32/16 31/31/16 33/33/16 34/34/16
f 34/34/17 33/33/17 35/35/17 36/36/17
f 36/36/18 35/35/18 37/37/18 38/38/18
f 38/38/19 37/37/19 39/39/19 40/40/19
f 40/40/20 39/39/20 41/41/20 42/42/20
f 42/42/21 41/41/21 43/43/21 44/44/21
f 44/44/22 43/43/22 45/45/22 46/46/22
f 46/46/23 45/45/23 47/47/23 48/48/23
f 48/48/24 47/47/24 49/49/24 50/50/24
f 50/50/25 49/49/25 51/51/25 52/52/25
f 52/52/26 51/51/26 53/53/26 54/54/26
f 54/54/27 53/53/27 55/55/27 56/56/27
f 56/56/28 55/55/28 57/57/28 58/58/28
f 58/58/29 57/57/29 59/59/29 60/60/29
f 60/60/30 59/59/30 61/61/30 62/62/30
f 3/63/31 2/64/31 63/65/31 61/66/31 59/67/31 57/68/31 55/69/31 53/70/31 51/71/31 49/72/31 47/73/31 45/74/31 43/75/31 41/76/31 39/77/31 37/78/31 35/79/31 33/80/31 31/81/31 29/82/31 27/83/31 25/84/31 23/85/31 21/86/31 19/87/31 17/88/31 15/89/31 13/90/31 11/91/31 9/92/31 7/93/31 5/94/31
f 62/62/32 61/61/32 63/95/32 64/96/32
f 64/96/33 63/95/33 2/97/33 1/98/33
f 65/99/34 66/100/34 67/101/34 68/102/34 69/103/34 70/104/34 71/105/34 72/106/34 73/107/34 74/108/34 75/109/34 76/110/34 77/111/34 78/112/34 79/113/34 80/114/34 81/115/34 82/116/34 83/117/34 84/118/34 85/119/34 86/120/34 87/121/34 88/122/34 89/123/34 90/124/34 91/125/34 92/126/34 93/127/34 94/128/34 95/129/34 96/130/34
f 97/131/35 64/96/35 1/98/35 98/132/35
f 99/133/36 62/62/36 64/96/36 97/131/36
f 100/134/37 60/60/37 62/62/37 99/133/37
f 101/135/38 58/58/38 60/60/38 100/134/38
f 102/136/39 56/56/39 58/58/39 101/135/39
f 103/137/40 54/54/40 56/56/40 102/136/40
f 104/138/41 52/52/41 54/54/41 103/137/41
f 105/139/42 50/50/42 52/52/42 104/138/42
f 106/140/43 48/48/43 50/50/43 105/139/43
f 107/141/44 46/46/44 48/48/44 106/140/44
f 108/142/45 44/44/45 46/46/45 107/141/45
f 109/143/46 42/42/46 44/44/46 108/142/46
f 110/144/47 40/40/47 42/42/47 109/143/47
f 111/145/48 38/38/48 40/40/48 110/144/48
f 112/146/49 36/36/49 38/38/49 111/145/49
f 113/147/50 34/34/50 36/36/50 112/146/50
f 114/148/51 32/32/51 34/34/51 113/147/51
f 115/149/52 30/30/52 32/32/52 114/148/52
f 116/150/53 28/28/53 30/30/53 115/149/53
f 117/151/54 26/26/54 28/28/54 116/150/54
f 118/152/55 24/24/55 26/26/55 117/151/55
f 119/153/56 22/22/56 24/24/56 118/152/56
f 120/154/57 20/20/57 22/22/57 119/153/57
f 121/155/58 18/18/58 20/20/58 120/154/58
f 122/156/59 16/16/59 18/18/59 121/155/59
f 123/157/60 14/14/60 16/16/60 122/156/60
f 124/158/61 12/12/61 14/14/61 123/157/61
f 125/159/62 10/10/62 12/12/62 124/158/62
f 126/160/63 8/8/63 10/10/63 125/159/63
f 127/161/64 6/6/64 8/8/64 126/160/64
f 128/162/65 4/4/65 6/6/65 127/161/65
f 98/163/66 1/1/66 4/4/66 128/162/66
f 65/164/67 98/163/67 128/162/67 66/165/67
f 66/165/68 128/162/68 127/161/68 67/166/68
f 67/166/69 127/161/69 126/160/69 68/167/69
f 68/167/70 126/160/70 125/159/70 69/168/70
f 69/168/71 125/159/71 124/158/71 70/169/71
f 70/169/72 124/158/72 123/157/72 71/170/72
f 71/170/73 123/157/73 122/156/73 72/171/73
f 72/171/74 122/156/74 121/155/74 73/172/74
f 73/172/75 121/155/75 120/154/75 74/173/75
f 74/173/76 120/154/76 119/153/76 75/174/76
f 75/174/77 119/153/77 118/152/77 76/175/77
f 76/175/78 118/152/78 117/151/78 77/176/78
f 77/176/79 117/151/79 116/150/79 78/177/79
f 78/177/80 116/150/80 115/149/80 79/178/80
f 79/178/81 115/149/81 114/148/81 80/179/81
f 80/179/82 114/148/82 113/147/82 81/180/82
f 81/180/83 113/147/83 112/146/83 82/181/83
f 82/181/84 112/146/84 111/145/84 83/182/84
f 83/182/85 111/145/85 110/144/85 84/183/85
f 84/183/86 110/144/86 109/143/86 85/184/86
f 85/184/87 109/143/87 108/142/87 86/185/87
f 86/185/88 108/142/88 107/141/88 87/186/88
f 87/186/89 107/141/89 106/140/89 88/187/89
f 88/187/90 106/140/90 105/139/90 89/188/90
f 89/188/91 105/139/91 104/138/91 90/189/91
f 90/189/92 104/138/92 103/137/92 91/190/92
f 91/190/93 103/137/93 102/136/93 92/191/93
f 92/191/94 102/136/94 101/135/94 93/192/94
f 93/192/95 101/135/95 100/134/95 94/193/95
f 94/193/96 100/134/96 99/133/96 95/194/96
f 95/194/97 99/133/97 97/131/97 96/195/97
f 96/195/98 97/131/98 98/132/98 65/196/98
