# Blender v2.80 (sub 75) OBJ File: ''
# www.blender.org
mtllib texturedwing.mtl
o Cube_Cube.001
v -0.215225 -0.080988 0.053024
v -0.153452 0.197479 -0.005036
v -0.153452 0.182196 -0.078334
v -0.215225 -0.096271 -0.020274
v 0.087845 -0.024722 -0.035192
v 0.063053 0.182196 -0.078334
v 0.135221 0.182196 -0.078334
v 0.199212 -0.097985 -0.021525
v 0.135221 0.197479 -0.005036
v 0.199212 -0.082702 0.051773
v -0.106075 -0.022814 0.040895
v -0.081283 0.197479 -0.005036
v 0.087845 -0.099926 -0.019512
v 0.184805 -0.197479 0.000828
v 0.184805 -0.182196 0.074126
v 0.087845 -0.084643 0.053786
v -0.081283 0.182196 -0.078334
v 0.063053 0.197479 -0.005036
v -0.009115 0.182196 -0.078334
v -0.009115 0.197479 -0.005036
v -0.203035 -0.197479 0.000828
v -0.106075 -0.118161 -0.015710
v -0.106075 -0.102878 0.057588
v -0.203035 -0.182196 0.074126
v -0.009115 -0.197479 0.000828
v -0.009115 -0.182196 0.074126
v 0.087845 -0.009440 0.038106
v -0.009115 -0.080988 0.053024
v -0.106075 -0.038096 -0.032403
v -0.009115 -0.096271 -0.020274
vt 0.441641 0.000000
vt 0.625000 0.000000
vt 0.625000 0.250000
vt 0.441641 0.250000
vt 0.441641 0.437500
vt 0.625000 0.437500
vt 0.625000 0.500000
vt 0.441641 0.500000
vt 0.625000 0.750000
vt 0.441641 0.750000
vt 0.441641 0.937500
vt 0.625000 0.937500
vt 0.625000 1.000000
vt 0.441641 1.000000
vt 0.312500 0.500000
vt 0.375000 0.500000
vt 0.375000 0.750000
vt 0.312500 0.750000
vt 0.812500 0.500000
vt 0.875000 0.500000
vt 0.875000 0.750000
vt 0.812500 0.750000
vt 0.687500 0.500000
vt 0.687500 0.750000
vt 0.750000 0.500000
vt 0.750000 0.750000
vt 0.125000 0.500000
vt 0.187500 0.500000
vt 0.187500 0.750000
vt 0.125000 0.750000
vt 0.250000 0.500000
vt 0.250000 0.750000
vt 0.625000 0.812500
vt 0.441641 0.812500
vt 0.625000 0.875000
vt 0.441641 0.875000
vt 0.625000 0.312500
vt 0.441641 0.312500
vt 0.625000 0.375000
vt 0.441641 0.375000
vt 0.375000 0.375000
vt 0.375000 0.437500
vt 0.375000 0.312500
vt 0.375000 0.250000
vt 0.375000 0.875000
vt 0.375000 0.937500
vt 0.375000 0.812500
vt 0.375000 1.000000
vt 0.375000 0.000000
vn -0.9772 0.2077 -0.0433
vn -0.0130 -0.2101 -0.9776
vn -0.0079 -0.2024 -0.9793
vn -0.0090 -0.2040 -0.9789
vn 0.9759 0.2138 -0.0446
vn -0.0000 0.2041 0.9789
vn -0.7167 -0.6827 0.1423
vn 0.0000 0.9789 -0.2041
vn 0.6412 -0.7512 0.1566
vn -0.6412 -0.7512 0.1566
vn 0.7167 -0.6827 0.1423
vn 0.0079 0.2024 0.9793
vn 0.0076 0.2026 0.9792
vn -0.0004 0.2042 0.9789
vn 0.0000 -0.2041 -0.9789
vn 0.0140 0.2116 0.9773
vn 0.9902 -0.1370 0.0286
vn -0.0140 -0.2116 -0.9773
vn -0.9931 -0.1146 0.0239
usemtl Material.001
s 1
f 1/1/1 2/2/1 3/3/1 4/4/1
f 5/5/2 6/6/3 7/7/3 8/8/4
f 8/8/5 7/7/5 9/9/5 10/10/5
f 11/11/6 12/12/6 2/13/6 1/14/6
f 13/15/7 14/16/7 15/17/7 16/18/7
f 17/19/8 3/20/8 2/21/8 12/22/8
f 7/7/8 6/23/8 18/24/8 9/9/8
f 6/23/8 19/25/8 20/26/8 18/24/8
f 19/25/8 17/19/8 12/22/8 20/26/8
f 21/27/9 22/28/9 23/29/9 24/30/9
f 22/28/10 25/31/10 26/32/10 23/29/10
f 25/31/11 13/15/11 16/18/11 26/32/11
f 10/10/12 9/9/12 18/33/13 27/34/14
f 27/34/14 18/33/13 20/35/6 28/36/6
f 28/36/6 20/35/6 12/12/6 11/11/6
f 4/4/15 3/3/15 17/37/15 29/38/15
f 29/38/15 17/37/15 19/39/15 30/40/15
f 30/40/15 19/39/15 6/6/15 5/5/15
f 25/41/15 30/40/15 5/5/15 13/42/15
f 22/43/15 29/38/15 30/40/15 25/41/15
f 21/44/15 4/4/15 29/38/15 22/43/15
f 26/45/6 28/36/6 11/11/6 23/46/6
f 16/47/6 27/34/14 28/36/6 26/45/6
f 15/17/16 10/10/16 27/34/16 16/47/16
f 23/46/6 11/11/6 1/14/6 24/48/6
f 14/16/17 8/8/17 10/10/17 15/17/17
f 13/42/18 5/5/2 8/8/4 14/16/18
f 24/49/19 1/1/19 4/4/19 21/44/19
