# Blender 3.6.5
# www.blender.org
mtllib chair.mtl
o chair
v 0.174148 0.345293 0.193496
v 0.174148 0.372476 0.193496
v -0.174148 0.372476 0.193496
v -0.174148 0.345293 0.193496
v -0.132761 0.345293 -0.198900
v -0.132761 0.372476 -0.198900
v 0.132761 0.372476 -0.198900
v 0.132761 0.345293 -0.198900
v 0.188859 0.345293 -0.135453
v 0.188859 0.372476 -0.135453
v 0.193496 0.372476 0.174149
v 0.193496 0.345293 0.174149
v -0.193496 0.345293 0.174149
v -0.193496 0.372476 0.174149
v -0.188859 0.372476 -0.135453
v -0.188859 0.345293 -0.135453
v 0.159079 0.372476 -0.185720
v 0.159079 0.345293 -0.185720
v 0.179627 0.372476 -0.164475
v 0.179627 0.345293 -0.164475
v -0.179627 0.372476 -0.164475
v -0.179627 0.345293 -0.164475
v -0.159079 0.372476 -0.185720
v -0.159079 0.345293 -0.185720
v 0.187829 0.345293 0.187829
v 0.187829 0.372476 0.187829
v -0.187829 0.345293 0.187829
v -0.187829 0.372476 0.187829
v -0.159554 0.275653 -0.156458
v -0.184846 0.275653 -0.156458
v -0.184846 0.141308 -0.165571
v -0.159554 0.141308 -0.165571
v -0.184846 0.275653 -0.195924
v -0.159554 0.275653 -0.195924
v -0.159554 0.141308 -0.201722
v -0.184846 0.141308 -0.201722
v -0.184846 -0.000000 -0.214654
v -0.159554 -0.000000 -0.214654
v -0.159554 -0.000000 -0.185918
v -0.184846 -0.000000 -0.185918
v -0.159554 0.406973 -0.202951
v -0.159554 0.406973 -0.162999
v -0.184846 0.406973 -0.162999
v -0.184846 0.406973 -0.202951
v -0.159554 0.857491 -0.245516
v -0.159554 0.857491 -0.221878
v -0.184846 0.857491 -0.221878
v -0.184846 0.857491 -0.245516
v -0.159554 0.347038 0.180502
v -0.184846 0.347038 0.180502
v -0.184846 0.000000 0.180502
v -0.159554 0.000000 0.180502
v -0.184846 0.347038 0.134330
v -0.159554 0.347038 0.134330
v -0.159554 0.000000 0.151766
v -0.184846 0.000000 0.151766
v -0.179757 0.318788 -0.164206
v -0.166843 0.318788 -0.164206
v -0.166843 0.318788 0.137869
v -0.179757 0.318788 0.137869
v -0.179757 0.347524 -0.164206
v -0.179757 0.347524 0.137869
v -0.166843 0.347524 -0.164206
v -0.166843 0.347524 0.137869
v 0.100121 0.879784 -0.259162
v 0.100121 0.883241 -0.227301
v 0.200242 0.884241 -0.218089
v 0.200242 0.880783 -0.249950
v 0.100121 0.843428 -0.254019
v 0.193565 0.844428 -0.244806
v 0.100121 0.846757 -0.223342
v 0.193565 0.847757 -0.214129
v -0.100121 0.883241 -0.227301
v -0.200242 0.884241 -0.218089
v -0.193565 0.847757 -0.214129
v -0.100121 0.846757 -0.223342
v -0.193565 0.844428 -0.244806
v -0.100121 0.843428 -0.254019
v -0.200242 0.880783 -0.249950
v -0.100121 0.879784 -0.259162
v 0.000000 0.882942 -0.230053
v 0.000000 0.846459 -0.226093
v 0.000000 0.843129 -0.256771
v 0.000000 0.879485 -0.261914
v 0.166884 0.318788 -0.164206
v 0.179797 0.318788 -0.164206
v 0.179797 0.318788 0.137869
v 0.166884 0.318788 0.137869
v 0.166884 0.347524 -0.164206
v 0.166884 0.347524 0.137869
v 0.179797 0.347524 -0.164206
v 0.179797 0.347524 0.137869
v 0.085696 0.442857 -0.201557
v 0.085696 0.445319 -0.178867
v 0.171392 0.446319 -0.169654
v 0.171392 0.443856 -0.192344
v 0.085696 0.408515 -0.197830
v 0.171392 0.409514 -0.188617
v 0.085696 0.410977 -0.175140
v 0.171392 0.411977 -0.165927
v -0.085696 0.445319 -0.178867
v -0.171392 0.446319 -0.169654
v -0.171392 0.411977 -0.165927
v -0.085696 0.410977 -0.175140
v -0.171392 0.409514 -0.188617
v -0.085696 0.408515 -0.197830
v -0.171392 0.443856 -0.192344
v -0.085696 0.442857 -0.201557
v 0.000000 0.445020 -0.181618
v 0.000000 0.410678 -0.177892
v 0.000000 0.408216 -0.200581
v 0.000000 0.442558 -0.204308
v 0.172319 0.318788 0.164549
v 0.172319 0.318788 0.177462
v -0.172319 0.318788 0.177462
v -0.172319 0.318788 0.164549
v 0.172319 0.347524 0.164549
v -0.172319 0.347524 0.164549
v 0.172319 0.347524 0.177462
v -0.172319 0.347524 0.177462
v -0.162206 0.318788 -0.170740
v -0.162206 0.318788 -0.183654
v 0.162206 0.318788 -0.183654
v 0.162206 0.318788 -0.170740
v -0.162206 0.347524 -0.170740
v 0.162206 0.347524 -0.170740
v -0.162206 0.347524 -0.183654
v 0.162206 0.347524 -0.183654
v 0.184849 0.275653 -0.156458
v 0.159558 0.275653 -0.156458
v 0.159558 0.141308 -0.165571
v 0.184849 0.141308 -0.165571
v 0.159558 0.275653 -0.195924
v 0.184849 0.275653 -0.195924
v 0.184849 0.141308 -0.201722
v 0.159558 0.141308 -0.201722
v 0.159558 -0.000000 -0.214654
v 0.184849 -0.000000 -0.214654
v 0.184849 -0.000000 -0.185918
v 0.159558 -0.000000 -0.185918
v 0.184849 0.406973 -0.202951
v 0.184849 0.406973 -0.162999
v 0.159558 0.406973 -0.162999
v 0.159558 0.406973 -0.202951
v 0.184849 0.857491 -0.245516
v 0.184849 0.857491 -0.221878
v 0.159558 0.857491 -0.221878
v 0.159558 0.857491 -0.245516
v 0.184849 0.347038 0.180502
v 0.159558 0.347038 0.180502
v 0.159558 0.000000 0.180502
v 0.184849 0.000000 0.180502
v 0.159558 0.347038 0.134330
v 0.184849 0.347038 0.134330
v 0.184849 0.000000 0.151766
v 0.159558 0.000000 0.151766
v 0.055957 0.849196 -0.254543
v 0.055957 0.849196 -0.236012
v 0.046171 0.442297 -0.184164
v 0.046171 0.442248 -0.200416
v -0.055957 0.849196 -0.236012
v -0.046171 0.442297 -0.184164
v -0.046171 0.442248 -0.200416
v -0.055957 0.849196 -0.254543
vn -0.0156 -0.0000 0.9999
vn 0.0156 -0.0000 0.9999
vn 0.0451 -0.0000 -0.9990
vn -0.0451 -0.0000 -0.9990
vn 1.0000 -0.0000 0.0032
vn 0.9992 -0.0000 -0.0409
vn -0.9992 -0.0000 -0.0409
vn -1.0000 -0.0000 0.0032
vn 0.5920 -0.0000 -0.8060
vn 0.5920 -0.0000 -0.8059
vn 0.8604 -0.0000 -0.5097
vn -0.8604 -0.0000 -0.5097
vn -0.5920 -0.0000 -0.8059
vn -0.5920 -0.0000 -0.8060
vn 0.0157 -0.0000 0.9999
vn 0.3827 -0.0000 0.9239
vn 0.9239 -0.0000 0.3827
vn -0.9239 -0.0000 0.3827
vn -0.3827 -0.0000 0.9239
vn -0.0157 -0.0000 0.9999
vn -0.0000 -1.0000 -0.0000
vn -0.0000 1.0000 -0.0000
vn -0.0000 -0.1063 0.9943
vn -0.0000 -0.0097 1.0000
vn -0.0000 0.0678 -0.9977
vn -0.0000 -0.0046 -1.0000
vn 1.0000 -0.0000 -0.0000
vn -1.0000 -0.0000 -0.0000
vn -0.0000 0.0911 -0.9958
vn -0.0000 -0.1425 0.9898
vn -0.0000 0.1117 0.9937
vn -0.0000 -0.0849 -0.9964
vn -0.0000 0.1296 0.9916
vn -0.0000 -0.0941 -0.9956
vn -0.0000 -0.0000 1.0000
vn -0.0000 -0.0502 -0.9987
vn -0.0000 0.9942 -0.1079
vn 0.0952 -0.1480 -0.9844
vn 0.0610 -0.1440 -0.9877
vn 0.0609 -0.1440 -0.9877
vn -0.0953 0.1160 0.9887
vn -0.0609 0.1122 0.9918
vn -0.0610 0.1119 0.9918
vn -0.0000 -0.9942 0.1079
vn 0.0610 0.1119 0.9918
vn 0.0953 0.1160 0.9887
vn -0.0610 -0.1441 -0.9877
vn -0.0952 -0.1480 -0.9844
vn -0.0609 -0.1440 -0.9877
vn -0.0610 -0.1440 -0.9877
vn -0.0000 0.1079 0.9942
vn -0.0000 -0.1401 -0.9901
vn 0.9838 -0.1780 0.0193
vn -0.9838 -0.1780 0.0193
vn 0.1075 -0.1073 -0.9884
vn 0.0700 -0.1076 -0.9917
vn -0.1075 0.1073 0.9884
vn -0.0700 0.1076 0.9917
vn 0.0700 0.1076 0.9917
vn 0.1075 0.1073 0.9884
vn -0.0700 -0.1076 -0.9917
vn -0.1075 -0.1073 -0.9884
vn 0.0701 0.1076 0.9917
vn -0.0000 -0.1079 -0.9942
vn -0.0701 0.1076 0.9917
vn -0.0000 -0.0000 -1.0000
vn 0.9997 -0.0240 -0.0000
vn 0.9997 -0.0240 0.0001
vn -0.0000 0.1264 0.9920
vn -0.9997 -0.0240 0.0001
vn -0.9997 -0.0240 -0.0000
vn -0.0000 -0.1318 -0.9913
vt 0.384443 0.675128
vt 0.384442 0.370285
vt 0.408215 0.370285
vt 0.408216 0.675128
vt 0.609537 0.727825
vt 0.609536 0.960221
vt 0.585778 0.960221
vt 0.585779 0.727825
vt 0.876398 0.373614
vt 0.876446 0.644566
vt 0.852656 0.644565
vt 0.852608 0.373612
vt 0.877071 0.644566
vt 0.877119 0.373614
vt 0.900909 0.373612
vt 0.900861 0.644565
vt 0.586395 0.704790
vt 0.610152 0.704790
vt 0.876759 0.688432
vt 0.852969 0.688430
vt 0.852753 0.669926
vt 0.876543 0.669927
vt 0.900764 0.669926
vt 0.876974 0.669927
vt 0.900549 0.688430
vt 0.876759 0.688432
vt 0.610151 0.983255
vt 0.586393 0.983255
vt 0.384639 0.358311
vt 0.408412 0.358311
vt 0.852667 0.361614
vt 0.876457 0.361616
vt 0.877060 0.361616
vt 0.900850 0.361614
vt 0.408413 0.687102
vt 0.384640 0.687102
vt 0.455992 0.674683
vt 0.447911 0.649302
vt 0.778505 0.649302
vt 0.770425 0.674683
vt 0.587887 0.017014
vt 0.592847 0.005063
vt 0.921638 0.005063
vt 0.926598 0.017014
vt 0.591945 0.287473
vt 0.922539 0.287473
vt 0.604821 0.000113
vt 0.909664 0.000113
vt 0.618010 0.331385
vt 0.600025 0.312826
vt 0.914459 0.312826
vt 0.896475 0.331385
vt 0.641044 0.342898
vt 0.873440 0.342898
vt 0.443853 0.378535
vt 0.782564 0.378535
vt 0.497010 0.704790
vt 0.473976 0.693264
vt 0.752441 0.693264
vt 0.729406 0.704790
vt 0.765630 0.361614
vt 0.777604 0.366571
vt 0.448813 0.366571
vt 0.460787 0.361614
vt 0.279485 0.122987
vt 0.279485 0.240161
vt 0.257349 0.240162
vt 0.257348 0.122987
vt 0.323762 0.123011
vt 0.323761 0.240157
vt 0.301625 0.240157
vt 0.301625 0.123011
vt 0.433225 0.708831
vt 0.433225 0.733963
vt 0.411088 0.733963
vt 0.411088 0.708831
vt 0.057858 0.124316
vt 0.046940 0.241494
vt 0.012441 0.239778
vt 0.026256 0.122744
vt 0.163249 0.241516
vt 0.153948 0.124199
vt 0.185569 0.123063
vt 0.197769 0.240276
vt 0.075315 0.001362
vt 0.050195 0.000113
vt 0.323762 0.000113
vt 0.301626 0.000113
vt 0.138189 0.001016
vt 0.163323 0.000113
vt 0.279485 0.000113
vt 0.257348 0.000113
vt 0.047365 0.356586
vt 0.012441 0.354849
vt 0.279485 0.355235
vt 0.257349 0.355235
vt 0.161237 0.356591
vt 0.196181 0.355336
vt 0.323761 0.355258
vt 0.301624 0.355258
vt 0.064957 0.752232
vt 0.044293 0.751204
vt 0.279486 0.751281
vt 0.257349 0.751282
vt 0.138189 0.751957
vt 0.158864 0.751214
vt 0.323759 0.750996
vt 0.301623 0.750996
vt 0.989145 0.000113
vt 0.989146 0.303615
vt 0.967009 0.303615
vt 0.967009 0.000113
vt 0.963458 0.665335
vt 0.963457 0.969458
vt 0.941321 0.969458
vt 0.941322 0.665334
vt 0.433225 0.759094
vt 0.411088 0.759094
vt 0.916152 0.665334
vt 0.900909 0.361614
vt 0.941321 0.361614
vt 0.941302 0.665334
vt 0.951767 0.303833
vt 0.926616 0.303833
vt 0.926598 0.000113
vt 0.967009 0.000113
vt 0.889042 0.688432
vt 0.889042 0.952616
vt 0.877739 0.952616
vt 0.877739 0.688432
vt 0.635302 0.704790
vt 0.635302 0.969175
vt 0.610152 0.969177
vt 0.610152 0.704792
vt 0.660451 0.704792
vt 0.660451 0.969177
vt 0.373921 0.358311
vt 0.382022 0.445941
vt 0.354002 0.445941
vt 0.345901 0.358311
vt 0.814580 0.367459
vt 0.815023 0.449245
vt 0.783008 0.449244
vt 0.782565 0.361615
vt 0.411808 0.364155
vt 0.443852 0.358311
vt 0.443298 0.445941
vt 0.411253 0.445941
vt 0.823247 0.618660
vt 0.850191 0.618660
vt 0.842099 0.700446
vt 0.815155 0.700446
vt 0.411254 0.621201
vt 0.443298 0.621201
vt 0.443853 0.708831
vt 0.411808 0.702987
vt 0.815155 0.361614
vt 0.842099 0.361614
vt 0.850191 0.443401
vt 0.823247 0.443401
vt 0.815022 0.624505
vt 0.814578 0.706291
vt 0.782564 0.712134
vt 0.783007 0.624504
vt 0.382022 0.621201
vt 0.373921 0.708831
vt 0.345901 0.708831
vt 0.354002 0.621201
vt 0.411088 0.533571
vt 0.443132 0.533571
vt 0.852608 0.531030
vt 0.825663 0.531030
vt 0.815155 0.536875
vt 0.783140 0.536874
vt 0.384442 0.533571
vt 0.356423 0.533571
vt 0.749058 0.704808
vt 0.750101 0.736998
vt 0.722051 0.736980
vt 0.722051 0.704790
vt 0.373951 0.708831
vt 0.373951 0.741021
vt 0.345901 0.741039
vt 0.346943 0.708848
vt 0.722051 0.704790
vt 0.722051 0.968975
vt 0.710749 0.968975
vt 0.710749 0.704790
vt 0.685600 0.704790
vt 0.685600 0.969175
vt 0.710749 0.704792
vt 0.710749 0.969177
vt 0.494572 0.704790
vt 0.502674 0.779795
vt 0.482720 0.779795
vt 0.474618 0.704790
vt 0.474043 0.704790
vt 0.474485 0.779795
vt 0.444296 0.779795
vt 0.443854 0.704790
vt 0.822444 0.700446
vt 0.852607 0.700446
vt 0.852053 0.775451
vt 0.821890 0.775451
vt 0.513186 0.929804
vt 0.533114 0.929804
vt 0.525022 1.004809
vt 0.505094 1.004809
vt 0.821890 0.925460
vt 0.852053 0.925460
vt 0.852608 1.000465
vt 0.822444 1.000465
vt 0.505094 0.704790
vt 0.525022 0.704790
vt 0.533114 0.779795
vt 0.513186 0.779795
vt 0.474485 0.929804
vt 0.474042 1.004809
vt 0.443853 1.004809
vt 0.444296 0.929804
vt 0.502674 0.929804
vt 0.494572 1.004809
vt 0.474618 1.004809
vt 0.482720 0.929804
vt 0.821724 0.850456
vt 0.851887 0.850456
vt 0.535530 0.854799
vt 0.515603 0.854799
vt 0.474618 0.854800
vt 0.444429 0.854800
vt 0.505094 0.854799
vt 0.485139 0.854799
vt 0.996889 0.665334
vt 0.996889 0.966976
vt 0.985595 0.966976
vt 0.985595 0.665334
vt 0.981732 0.663256
vt 0.981733 0.361614
vt 1.006848 0.361615
vt 1.006847 0.663256
vt 0.877739 0.990073
vt 0.852608 0.990073
vt 0.852608 0.688432
vt 0.877739 0.688432
vt 0.889615 0.972370
vt 0.889615 0.688432
vt 0.900909 0.688432
vt 0.900909 0.972370
vt 0.560661 0.704790
vt 0.560662 0.988729
vt 0.535531 0.988729
vt 0.535530 0.704790
vt 0.560663 0.704790
vt 0.585778 0.704790
vt 0.585777 0.988729
vt 0.560662 0.988729
vt 0.301622 0.122987
vt 0.301622 0.240161
vt 0.279486 0.240162
vt 0.279486 0.122987
vt 0.345901 0.123011
vt 0.345900 0.240157
vt 0.323764 0.240157
vt 0.323765 0.123011
vt 0.772236 0.704790
vt 0.772236 0.729922
vt 0.750101 0.729922
vt 0.750101 0.704790
vt 0.120732 0.124316
vt 0.109814 0.241494
vt 0.075315 0.239778
vt 0.089130 0.122744
vt 0.222829 0.241516
vt 0.213528 0.124199
vt 0.245148 0.123063
vt 0.257348 0.240276
vt 0.138189 0.001362
vt 0.113069 0.000113
vt 0.345901 0.000113
vt 0.323765 0.000113
vt 0.197769 0.001016
vt 0.222903 0.000113
vt 0.301622 0.000113
vt 0.279486 0.000113
vt 0.110239 0.356586
vt 0.075315 0.354849
vt 0.301622 0.355235
vt 0.279486 0.355235
vt 0.220816 0.356591
vt 0.255761 0.355336
vt 0.345900 0.355258
vt 0.323764 0.355258
vt 0.127831 0.752232
vt 0.107168 0.751204
vt 0.301623 0.751281
vt 0.279487 0.751282
vt 0.197769 0.751957
vt 0.218444 0.751214
vt 0.345898 0.750996
vt 0.323762 0.750996
vt 0.408412 0.687102
vt 0.408413 0.990605
vt 0.386277 0.990605
vt 0.386277 0.687102
vt 0.985595 0.665335
vt 0.985594 0.969458
vt 0.963458 0.969458
vt 0.963460 0.665334
vt 0.772236 0.755053
vt 0.750101 0.755053
vt 0.916152 0.969055
vt 0.900909 0.665335
vt 0.941321 0.665335
vt 0.941302 0.969055
vt 0.966489 0.665334
vt 0.941339 0.665334
vt 0.981732 0.361614
vt 0.473858 0.002495
vt 0.459834 0.361615
vt 0.443853 0.358850
vt 0.459834 0.000113
vt 0.563244 0.000113
vt 0.571809 0.357768
vt 0.473858 0.357768
vt 0.482422 0.000113
vt 0.571809 0.361339
vt 0.571809 0.001946
vt 0.585915 0.000113
vt 0.587887 0.359200
vt 0.435289 0.000113
vt 0.443853 0.358311
vt 0.345901 0.358311
vt 0.354468 0.000113
s 0
usemtl MATERIAL_CHAIR_01_
f 4/1/1 1/2/2 2/3/2
f 2/3/2 3/4/1 4/1/1
f 8/5/3 5/6/4 6/7/4
f 6/7/4 7/8/3 8/5/3
f 12/9/5 9/10/6 10/11/6
f 10/11/6 11/12/5 12/9/5
f 16/13/7 13/14/8 14/15/8
f 14/15/8 15/16/7 16/13/7
f 8/5/3 7/8/3 17/17/9
f 17/17/9 18/18/9 8/5/3
f 18/19/10 17/20/10 19/21/11
f 19/21/11 20/22/11 18/19/10
f 20/22/11 19/21/11 10/11/6
f 10/11/6 9/10/6 20/22/11
f 16/13/7 15/16/7 21/23/12
f 21/23/12 22/24/12 16/13/7
f 22/24/12 21/23/12 23/25/13
f 23/25/13 24/26/13 22/24/12
f 24/27/14 23/28/14 6/7/4
f 6/7/4 5/6/4 24/27/14
f 2/3/15 1/2/15 25/29/16
f 25/29/16 26/30/16 2/3/15
f 26/31/17 25/32/17 12/9/5
f 12/9/5 11/12/5 26/31/17
f 14/15/8 13/14/8 27/33/18
f 27/33/18 28/34/18 14/15/8
f 28/35/19 27/36/19 4/1/20
f 4/1/20 3/4/20 28/35/19
f 20/37/21 9/38/21 16/39/21
f 16/39/21 22/40/21 20/37/21
f 14/41/22 28/42/22 26/43/22
f 26/43/22 11/44/22 14/41/22
f 15/45/22 14/41/22 11/44/22
f 11/44/22 10/46/22 15/45/22
f 26/43/22 28/42/22 3/47/22
f 3/47/22 2/48/22 26/43/22
f 23/49/22 21/50/22 19/51/22
f 19/51/22 17/52/22 23/49/22
f 21/50/22 15/45/22 10/46/22
f 10/46/22 19/51/22 21/50/22
f 6/53/22 23/49/22 17/52/22
f 17/52/22 7/54/22 6/53/22
f 12/55/21 13/56/21 16/39/21
f 16/39/21 9/38/21 12/55/21
f 8/57/21 18/58/21 24/59/21
f 24/59/21 5/60/21 8/57/21
f 18/58/21 20/37/21 22/40/21
f 22/40/21 24/59/21 18/58/21
f 4/61/21 27/62/21 25/63/21
f 25/63/21 1/64/21 4/61/21
f 27/62/21 13/56/21 12/55/21
f 12/55/21 25/63/21 27/62/21
f 32/65/23 29/66/24 30/67/24
f 30/67/24 31/68/23 32/65/23
f 36/69/25 33/70/26 34/71/26
f 34/71/26 35/72/25 36/69/25
f 40/73/21 37/74/21 38/75/21
f 38/75/21 39/76/21 40/73/21
f 35/77/27 34/78/27 29/79/27
f 29/79/27 32/80/27 35/77/27
f 33/81/28 36/82/28 31/83/28
f 31/83/28 30/84/28 33/81/28
f 38/85/27 35/77/27 32/80/27
f 32/80/27 39/86/27 38/85/27
f 37/87/29 36/69/25 35/72/25
f 35/72/25 38/88/29 37/87/29
f 37/89/28 40/90/28 31/83/28
f 31/83/28 36/82/28 37/89/28
f 39/91/30 32/65/23 31/68/23
f 31/68/23 40/92/30 39/91/30
f 34/78/27 41/93/27 42/94/27
f 42/94/27 29/79/27 34/78/27
f 29/66/24 42/95/31 43/96/31
f 43/96/31 30/67/24 29/66/24
f 44/97/28 33/81/28 30/84/28
f 30/84/28 43/98/28 44/97/28
f 33/70/26 44/99/32 41/100/32
f 41/100/32 34/71/26 33/70/26
f 41/93/27 45/101/27 46/102/27
f 46/102/27 42/94/27 41/93/27
f 42/95/31 46/103/33 47/104/33
f 47/104/33 43/96/31 42/95/31
f 48/105/28 44/97/28 43/98/28
f 43/98/28 47/106/28 48/105/28
f 44/99/32 48/107/34 45/108/34
f 45/108/34 41/100/32 44/99/32
f 52/109/35 49/110/35 50/111/35
f 50/111/35 51/112/35 52/109/35
f 56/113/36 53/114/36 54/115/36
f 54/115/36 55/116/36 56/113/36
f 51/74/21 56/117/21 55/118/21
f 55/118/21 52/75/21 51/74/21
f 55/119/27 54/120/27 49/121/27
f 49/121/27 52/122/27 55/119/27
f 56/123/28 51/124/28 50/125/28
f 50/125/28 53/126/28 56/123/28
f 60/127/21 57/128/21 58/129/21
f 58/129/21 59/130/21 60/127/21
f 62/131/28 61/132/28 57/133/28
f 57/133/28 60/134/28 62/131/28
f 64/131/27 59/135/27 58/136/27
f 58/136/27 63/132/27 64/131/27
f 68/137/37 65/138/37 66/139/37
f 66/139/37 67/140/37 68/137/37
f 70/141/38 69/142/39 65/143/40
f 65/143/40 68/144/38 70/141/38
f 72/145/41 67/146/41 66/147/42
f 66/147/43 71/148/43 72/145/41
f 71/149/44 69/150/44 70/151/44
f 70/151/44 72/152/44 71/149/44
f 76/153/45 73/154/45 74/155/46
f 74/155/46 75/156/46 76/153/45
f 75/157/44 77/158/44 78/159/44
f 78/159/44 76/160/44 75/157/44
f 78/161/47 77/162/48 79/163/48
f 79/163/48 80/164/49 78/161/50
f 80/165/37 79/166/37 74/167/37
f 74/167/37 73/168/37 80/165/37
f 82/169/51 81/170/51 73/154/45
f 73/154/45 76/153/45 82/169/51
f 76/160/44 78/159/44 83/171/44
f 83/171/44 82/172/44 76/160/44
f 83/173/52 78/161/50 80/164/49
f 80/164/49 84/174/52 83/173/52
f 84/175/37 80/165/37 73/168/37
f 73/168/37 81/176/37 84/175/37
f 71/148/43 66/147/43 81/170/51
f 81/170/51 82/169/51 71/148/43
f 82/172/44 83/171/44 69/150/44
f 69/150/44 71/149/44 82/172/44
f 69/142/39 83/173/52 84/174/52
f 84/174/52 65/143/40 69/142/39
f 65/138/37 84/175/37 81/176/37
f 81/176/37 66/139/37 65/138/37
f 70/177/53 68/178/53 67/179/53
f 67/179/53 72/180/53 70/177/53
f 75/181/54 74/182/54 79/183/54
f 79/183/54 77/184/54 75/181/54
f 88/185/21 85/186/21 86/187/21
f 86/187/21 87/188/21 88/185/21
f 90/189/28 89/190/28 85/136/28
f 85/136/28 88/135/28 90/189/28
f 92/189/27 87/191/27 86/192/27
f 86/192/27 91/190/27 92/189/27
f 96/193/37 93/194/37 94/195/37
f 94/195/37 95/196/37 96/193/37
f 98/197/55 97/198/56 93/199/56
f 93/199/56 96/200/55 98/197/55
f 100/201/57 95/202/57 94/203/58
f 94/203/58 99/204/58 100/201/57
f 99/205/44 97/206/44 98/207/44
f 98/207/44 100/208/44 99/205/44
f 104/209/59 101/210/59 102/211/60
f 102/211/60 103/212/60 104/209/59
f 103/213/44 105/214/44 106/215/44
f 106/215/44 104/216/44 103/213/44
f 106/217/61 105/218/62 107/219/62
f 107/219/62 108/220/61 106/217/61
f 108/221/37 107/222/37 102/223/37
f 102/223/37 101/224/37 108/221/37
f 110/225/51 109/226/51 101/210/59
f 101/210/63 104/209/63 110/225/51
f 104/216/44 106/215/44 111/227/44
f 111/227/44 110/228/44 104/216/44
f 111/229/64 106/217/61 108/220/61
f 108/220/61 112/230/64 111/229/64
f 112/231/37 108/221/37 101/224/37
f 101/224/37 109/232/37 112/231/37
f 99/204/58 94/203/58 109/226/51
f 109/226/51 110/225/51 99/204/65
f 110/228/44 111/227/44 97/206/44
f 97/206/44 99/205/44 110/228/44
f 97/198/56 111/229/64 112/230/64
f 112/230/64 93/199/56 97/198/56
f 93/194/37 112/231/37 109/232/37
f 109/232/37 94/195/37 93/194/37
f 116/233/21 113/234/21 114/235/21
f 114/235/21 115/236/21 116/233/21
f 118/237/66 117/238/66 113/239/66
f 113/239/66 116/240/66 118/237/66
f 120/241/35 115/242/35 114/243/35
f 114/243/35 119/244/35 120/241/35
f 124/245/21 121/246/21 122/247/21
f 122/247/21 123/248/21 124/245/21
f 126/249/35 125/250/35 121/251/35
f 121/251/35 124/252/35 126/249/35
f 128/253/66 123/254/66 122/255/66
f 122/255/66 127/256/66 128/253/66
f 132/257/23 129/258/24 130/259/24
f 130/259/24 131/260/23 132/257/23
f 136/261/25 133/262/26 134/263/26
f 134/263/26 135/264/25 136/261/25
f 140/265/21 137/266/21 138/267/21
f 138/267/21 139/268/21 140/265/21
f 135/269/27 134/270/27 129/271/27
f 129/271/27 132/272/27 135/269/27
f 133/273/28 136/274/28 131/275/28
f 131/275/28 130/276/28 133/273/28
f 138/277/27 135/269/27 132/272/27
f 132/272/27 139/278/27 138/277/27
f 137/279/29 136/261/25 135/264/25
f 135/264/25 138/280/29 137/279/29
f 137/281/28 140/282/28 131/275/28
f 131/275/28 136/274/28 137/281/28
f 139/283/30 132/257/23 131/260/23
f 131/260/23 140/284/30 139/283/30
f 134/270/27 141/285/27 142/286/27
f 142/286/27 129/271/27 134/270/27
f 129/258/24 142/287/31 143/288/31
f 143/288/31 130/259/24 129/258/24
f 144/289/28 133/273/28 130/276/28
f 130/276/28 143/290/28 144/289/28
f 133/262/26 144/291/32 141/292/32
f 141/292/32 134/263/26 133/262/26
f 141/285/27 145/293/27 146/294/27
f 146/294/27 142/286/27 141/285/27
f 142/287/31 146/295/33 147/296/33
f 147/296/33 143/288/31 142/287/31
f 148/297/28 144/289/28 143/290/28
f 143/290/28 147/298/28 148/297/28
f 144/291/32 148/299/34 145/300/34
f 145/300/34 141/292/32 144/291/32
f 152/301/35 149/302/35 150/303/35
f 150/303/35 151/304/35 152/301/35
f 156/305/36 153/306/36 154/307/36
f 154/307/36 155/308/36 156/305/36
f 151/266/21 156/309/21 155/310/21
f 155/310/21 152/267/21 151/266/21
f 155/311/27 154/312/27 149/313/27
f 149/313/27 152/314/27 155/311/27
f 156/315/28 151/316/28 150/121/28
f 150/121/28 153/317/28 156/315/28
f 160/318/67 157/319/67 158/320/67
f 158/320/68 159/321/68 160/318/68
f 159/322/69 158/323/69 161/324/69
f 161/324/69 162/325/69 159/322/69
f 164/326/70 163/327/70 162/328/70
f 162/328/71 161/329/71 164/326/71
f 163/330/72 164/331/72 157/332/72
f 157/332/72 160/333/72 163/330/72
